<svg xmlns="http://www.w3.org/2000/svg" viewBox="0 0 209.4 209.4"><defs><style>.cls-1{fill:#fff;}</style></defs><title>Asset 2</title><g id="Layer_2" data-name="Layer 2"><g id="Layer_1-2" data-name="Layer 1"><path class="cls-1" d="M0,104.7A104.7,104.7,0,1,1,104.7,209.4,104.71,104.71,0,0,1,0,104.7ZM114.4,205.38a91,91,0,1,0-91-91A91,91,0,0,0,114.4,205.38Zm7.85-3.25a79.89,79.89,0,1,0-79.89-79.88A79.89,79.89,0,0,0,122.25,202.13Zm-39-62.93a55.91,55.91,0,1,1,55.91,55.91A55.91,55.91,0,0,1,83.29,139.2Z"/></g></g></svg>